<svg class="rich-terminal" viewBox="0 0 1238 830.8" xmlns="http://www.w3.org/2000/svg">
    <!-- Generated with Rich https://www.textualize.io -->
    <style>

    @font-face {
        font-family: "Fira Code";
        src: local("FiraCode-Regular"),
                url("https://cdnjs.cloudflare.com/ajax/libs/firacode/6.2.0/woff2/FiraCode-Regular.woff2") format("woff2"),
                url("https://cdnjs.cloudflare.com/ajax/libs/firacode/6.2.0/woff/FiraCode-Regular.woff") format("woff");
        font-style: normal;
        font-weight: 400;
    }
    @font-face {
        font-family: "Fira Code";
        src: local("FiraCode-Bold"),
                url("https://cdnjs.cloudflare.com/ajax/libs/firacode/6.2.0/woff2/FiraCode-Bold.woff2") format("woff2"),
                url("https://cdnjs.cloudflare.com/ajax/libs/firacode/6.2.0/woff/FiraCode-Bold.woff") format("woff");
        font-style: bold;
        font-weight: 700;
    }

    .terminal-2482365189-matrix {
        font-family: Fira Code, monospace;
        font-size: 20px;
        line-height: 24.4px;
        font-variant-east-asian: full-width;
    }

    .terminal-2482365189-title {
        font-size: 18px;
        font-weight: bold;
        font-family: arial;
    }

    .terminal-2482365189-r1 { fill: #c5c8c6 }
.terminal-2482365189-r2 { fill: #e0e0e0 }
.terminal-2482365189-r3 { fill: #fea62b;font-weight: bold }
.terminal-2482365189-r4 { fill: #e0e0e0;font-weight: bold }
.terminal-2482365189-r5 { fill: #ddedf9;font-weight: bold }
.terminal-2482365189-r6 { fill: #9e9e9e }
.terminal-2482365189-r7 { fill: #ffa62b;font-weight: bold }
.terminal-2482365189-r8 { fill: #495259 }
    </style>

    <defs>
    <clipPath id="terminal-2482365189-clip-terminal">
      <rect x="0" y="0" width="1219.0" height="779.8" />
    </clipPath>
    <clipPath id="terminal-2482365189-line-0">
    <rect x="0" y="1.5" width="1220" height="24.65"/>
            </clipPath>
<clipPath id="terminal-2482365189-line-1">
    <rect x="0" y="25.9" width="1220" height="24.65"/>
            </clipPath>
<clipPath id="terminal-2482365189-line-2">
    <rect x="0" y="50.3" width="1220" height="24.65"/>
            </clipPath>
<clipPath id="terminal-2482365189-line-3">
    <rect x="0" y="74.7" width="1220" height="24.65"/>
            </clipPath>
<clipPath id="terminal-2482365189-line-4">
    <rect x="0" y="99.1" width="1220" height="24.65"/>
            </clipPath>
<clipPath id="terminal-2482365189-line-5">
    <rect x="0" y="123.5" width="1220" height="24.65"/>
            </clipPath>
<clipPath id="terminal-2482365189-line-6">
    <rect x="0" y="147.9" width="1220" height="24.65"/>
            </clipPath>
<clipPath id="terminal-2482365189-line-7">
    <rect x="0" y="172.3" width="1220" height="24.65"/>
            </clipPath>
<clipPath id="terminal-2482365189-line-8">
    <rect x="0" y="196.7" width="1220" height="24.65"/>
            </clipPath>
<clipPath id="terminal-2482365189-line-9">
    <rect x="0" y="221.1" width="1220" height="24.65"/>
            </clipPath>
<clipPath id="terminal-2482365189-line-10">
    <rect x="0" y="245.5" width="1220" height="24.65"/>
            </clipPath>
<clipPath id="terminal-2482365189-line-11">
    <rect x="0" y="269.9" width="1220" height="24.65"/>
            </clipPath>
<clipPath id="terminal-2482365189-line-12">
    <rect x="0" y="294.3" width="1220" height="24.65"/>
            </clipPath>
<clipPath id="terminal-2482365189-line-13">
    <rect x="0" y="318.7" width="1220" height="24.65"/>
            </clipPath>
<clipPath id="terminal-2482365189-line-14">
    <rect x="0" y="343.1" width="1220" height="24.65"/>
            </clipPath>
<clipPath id="terminal-2482365189-line-15">
    <rect x="0" y="367.5" width="1220" height="24.65"/>
            </clipPath>
<clipPath id="terminal-2482365189-line-16">
    <rect x="0" y="391.9" width="1220" height="24.65"/>
            </clipPath>
<clipPath id="terminal-2482365189-line-17">
    <rect x="0" y="416.3" width="1220" height="24.65"/>
            </clipPath>
<clipPath id="terminal-2482365189-line-18">
    <rect x="0" y="440.7" width="1220" height="24.65"/>
            </clipPath>
<clipPath id="terminal-2482365189-line-19">
    <rect x="0" y="465.1" width="1220" height="24.65"/>
            </clipPath>
<clipPath id="terminal-2482365189-line-20">
    <rect x="0" y="489.5" width="1220" height="24.65"/>
            </clipPath>
<clipPath id="terminal-2482365189-line-21">
    <rect x="0" y="513.9" width="1220" height="24.65"/>
            </clipPath>
<clipPath id="terminal-2482365189-line-22">
    <rect x="0" y="538.3" width="1220" height="24.65"/>
            </clipPath>
<clipPath id="terminal-2482365189-line-23">
    <rect x="0" y="562.7" width="1220" height="24.65"/>
            </clipPath>
<clipPath id="terminal-2482365189-line-24">
    <rect x="0" y="587.1" width="1220" height="24.65"/>
            </clipPath>
<clipPath id="terminal-2482365189-line-25">
    <rect x="0" y="611.5" width="1220" height="24.65"/>
            </clipPath>
<clipPath id="terminal-2482365189-line-26">
    <rect x="0" y="635.9" width="1220" height="24.65"/>
            </clipPath>
<clipPath id="terminal-2482365189-line-27">
    <rect x="0" y="660.3" width="1220" height="24.65"/>
            </clipPath>
<clipPath id="terminal-2482365189-line-28">
    <rect x="0" y="684.7" width="1220" height="24.65"/>
            </clipPath>
<clipPath id="terminal-2482365189-line-29">
    <rect x="0" y="709.1" width="1220" height="24.65"/>
            </clipPath>
<clipPath id="terminal-2482365189-line-30">
    <rect x="0" y="733.5" width="1220" height="24.65"/>
            </clipPath>
    </defs>

    <rect fill="#292929" stroke="rgba(255,255,255,0.35)" stroke-width="1" x="1" y="1" width="1236" height="828.8" rx="8"/><text class="terminal-2482365189-title" fill="#c5c8c6" text-anchor="middle" x="618" y="27">lazysense</text>
            <g transform="translate(26,22)">
            <circle cx="0" cy="0" r="7" fill="#ff5f57"/>
            <circle cx="22" cy="0" r="7" fill="#febc2e"/>
            <circle cx="44" cy="0" r="7" fill="#28c840"/>
            </g>
        
    <g transform="translate(9, 41)" clip-path="url(#terminal-2482365189-clip-terminal)">
    <rect fill="#242f38" x="0" y="1.5" width="12.2" height="24.65" shape-rendering="crispEdges"/><rect fill="#242f38" x="12.2" y="1.5" width="12.2" height="24.65" shape-rendering="crispEdges"/><rect fill="#242f38" x="24.4" y="1.5" width="61" height="24.65" shape-rendering="crispEdges"/><rect fill="#242f38" x="85.4" y="1.5" width="12.2" height="24.65" shape-rendering="crispEdges"/><rect fill="#242f38" x="97.6" y="1.5" width="439.2" height="24.65" shape-rendering="crispEdges"/><rect fill="#242f38" x="536.8" y="1.5" width="109.8" height="24.65" shape-rendering="crispEdges"/><rect fill="#242f38" x="646.6" y="1.5" width="451.4" height="24.65" shape-rendering="crispEdges"/><rect fill="#242f38" x="1098" y="1.5" width="12.2" height="24.65" shape-rendering="crispEdges"/><rect fill="#242f38" x="1110.2" y="1.5" width="0" height="24.65" shape-rendering="crispEdges"/><rect fill="#242f38" x="1110.2" y="1.5" width="97.6" height="24.65" shape-rendering="crispEdges"/><rect fill="#242f38" x="1207.8" y="1.5" width="12.2" height="24.65" shape-rendering="crispEdges"/><rect fill="#1e1e1e" x="0" y="25.9" width="1220" height="24.65" shape-rendering="crispEdges"/><rect fill="#1e1e1e" x="0" y="50.3" width="24.4" height="24.65" shape-rendering="crispEdges"/><rect fill="#1e1e1e" x="24.4" y="50.3" width="134.2" height="24.65" shape-rendering="crispEdges"/><rect fill="#1e1e1e" x="158.6" y="50.3" width="1037" height="24.65" shape-rendering="crispEdges"/><rect fill="#1e1e1e" x="1195.6" y="50.3" width="24.4" height="24.65" shape-rendering="crispEdges"/><rect fill="#1e1e1e" x="0" y="74.7" width="1220" height="24.65" shape-rendering="crispEdges"/><rect fill="#2d3740" x="0" y="99.1" width="36.6" height="24.65" shape-rendering="crispEdges"/><rect fill="#2d3740" x="36.6" y="99.1" width="170.8" height="24.65" shape-rendering="crispEdges"/><rect fill="#2d3740" x="207.4" y="99.1" width="195.2" height="24.65" shape-rendering="crispEdges"/><rect fill="#2d3740" x="402.6" y="99.1" width="231.8" height="24.65" shape-rendering="crispEdges"/><rect fill="#2d3740" x="634.4" y="99.1" width="244" height="24.65" shape-rendering="crispEdges"/><rect fill="#2d3740" x="878.4" y="99.1" width="219.6" height="24.65" shape-rendering="crispEdges"/><rect fill="#2d3740" x="1098" y="99.1" width="61" height="24.65" shape-rendering="crispEdges"/><rect fill="#2d3740" x="1159" y="99.1" width="61" height="24.65" shape-rendering="crispEdges"/><rect fill="#0178d4" x="0" y="123.5" width="36.6" height="24.65" shape-rendering="crispEdges"/><rect fill="#0178d4" x="36.6" y="123.5" width="170.8" height="24.65" shape-rendering="crispEdges"/><rect fill="#0178d4" x="207.4" y="123.5" width="195.2" height="24.65" shape-rendering="crispEdges"/><rect fill="#0178d4" x="402.6" y="123.5" width="231.8" height="24.65" shape-rendering="crispEdges"/><rect fill="#0178d4" x="634.4" y="123.5" width="244" height="24.65" shape-rendering="crispEdges"/><rect fill="#0178d4" x="878.4" y="123.5" width="219.6" height="24.65" shape-rendering="crispEdges"/><rect fill="#0178d4" x="1098" y="123.5" width="61" height="24.65" shape-rendering="crispEdges"/><rect fill="#0178d4" x="1159" y="123.5" width="61" height="24.65" shape-rendering="crispEdges"/><rect fill="#272727" x="0" y="147.9" width="36.6" height="24.65" shape-rendering="crispEdges"/><rect fill="#272727" x="36.6" y="147.9" width="170.8" height="24.65" shape-rendering="crispEdges"/><rect fill="#272727" x="207.4" y="147.9" width="195.2" height="24.65" shape-rendering="crispEdges"/><rect fill="#272727" x="402.6" y="147.9" width="231.8" height="24.65" shape-rendering="crispEdges"/><rect fill="#272727" x="634.4" y="147.9" width="244" height="24.65" shape-rendering="crispEdges"/><rect fill="#272727" x="878.4" y="147.9" width="219.6" height="24.65" shape-rendering="crispEdges"/><rect fill="#272727" x="1098" y="147.9" width="12.2" height="24.65" shape-rendering="crispEdges"/><rect fill="#272727" x="1110.2" y="147.9" width="24.4" height="24.65" shape-rendering="crispEdges"/><rect fill="#272727" x="1134.6" y="147.9" width="24.4" height="24.65" shape-rendering="crispEdges"/><rect fill="#272727" x="1159" y="147.9" width="61" height="24.65" shape-rendering="crispEdges"/><rect fill="#272727" x="0" y="172.3" width="36.6" height="24.65" shape-rendering="crispEdges"/><rect fill="#272727" x="36.6" y="172.3" width="170.8" height="24.65" shape-rendering="crispEdges"/><rect fill="#272727" x="207.4" y="172.3" width="195.2" height="24.65" shape-rendering="crispEdges"/><rect fill="#272727" x="402.6" y="172.3" width="231.8" height="24.65" shape-rendering="crispEdges"/><rect fill="#272727" x="634.4" y="172.3" width="244" height="24.65" shape-rendering="crispEdges"/><rect fill="#272727" x="878.4" y="172.3" width="219.6" height="24.65" shape-rendering="crispEdges"/><rect fill="#272727" x="1098" y="172.3" width="12.2" height="24.65" shape-rendering="crispEdges"/><rect fill="#272727" x="1110.2" y="172.3" width="24.4" height="24.65" shape-rendering="crispEdges"/><rect fill="#272727" x="1134.6" y="172.3" width="24.4" height="24.65" shape-rendering="crispEdges"/><rect fill="#272727" x="1159" y="172.3" width="61" height="24.65" shape-rendering="crispEdges"/><rect fill="#272727" x="0" y="196.7" width="36.6" height="24.65" shape-rendering="crispEdges"/><rect fill="#272727" x="36.6" y="196.7" width="170.8" height="24.65" shape-rendering="crispEdges"/><rect fill="#272727" x="207.4" y="196.7" width="195.2" height="24.65" shape-rendering="crispEdges"/><rect fill="#272727" x="402.6" y="196.7" width="231.8" height="24.65" shape-rendering="crispEdges"/><rect fill="#272727" x="634.4" y="196.7" width="244" height="24.65" shape-rendering="crispEdges"/><rect fill="#272727" x="878.4" y="196.7" width="219.6" height="24.65" shape-rendering="crispEdges"/><rect fill="#272727" x="1098" y="196.7" width="12.2" height="24.65" shape-rendering="crispEdges"/><rect fill="#272727" x="1110.2" y="196.7" width="24.4" height="24.65" shape-rendering="crispEdges"/><rect fill="#272727" x="1134.6" y="196.7" width="24.4" height="24.65" shape-rendering="crispEdges"/><rect fill="#272727" x="1159" y="196.7" width="61" height="24.65" shape-rendering="crispEdges"/><rect fill="#272727" x="0" y="221.1" width="1220" height="24.65" shape-rendering="crispEdges"/><rect fill="#272727" x="0" y="245.5" width="1220" height="24.65" shape-rendering="crispEdges"/><rect fill="#272727" x="0" y="269.9" width="1220" height="24.65" shape-rendering="crispEdges"/><rect fill="#272727" x="0" y="294.3" width="1220" height="24.65" shape-rendering="crispEdges"/><rect fill="#272727" x="0" y="318.7" width="1220" height="24.65" shape-rendering="crispEdges"/><rect fill="#272727" x="0" y="343.1" width="1220" height="24.65" shape-rendering="crispEdges"/><rect fill="#272727" x="0" y="367.5" width="1220" height="24.65" shape-rendering="crispEdges"/><rect fill="#272727" x="0" y="391.9" width="1220" height="24.65" shape-rendering="crispEdges"/><rect fill="#272727" x="0" y="416.3" width="1220" height="24.65" shape-rendering="crispEdges"/><rect fill="#272727" x="0" y="440.7" width="1220" height="24.65" shape-rendering="crispEdges"/><rect fill="#272727" x="0" y="465.1" width="1220" height="24.65" shape-rendering="crispEdges"/><rect fill="#272727" x="0" y="489.5" width="1220" height="24.65" shape-rendering="crispEdges"/><rect fill="#272727" x="0" y="513.9" width="1220" height="24.65" shape-rendering="crispEdges"/><rect fill="#272727" x="0" y="538.3" width="1220" height="24.65" shape-rendering="crispEdges"/><rect fill="#272727" x="0" y="562.7" width="1220" height="24.65" shape-rendering="crispEdges"/><rect fill="#272727" x="0" y="587.1" width="1220" height="24.65" shape-rendering="crispEdges"/><rect fill="#272727" x="0" y="611.5" width="1220" height="24.65" shape-rendering="crispEdges"/><rect fill="#272727" x="0" y="635.9" width="1220" height="24.65" shape-rendering="crispEdges"/><rect fill="#272727" x="0" y="660.3" width="1220" height="24.65" shape-rendering="crispEdges"/><rect fill="#272727" x="0" y="684.7" width="1220" height="24.65" shape-rendering="crispEdges"/><rect fill="#272727" x="0" y="709.1" width="1220" height="24.65" shape-rendering="crispEdges"/><rect fill="#272727" x="0" y="733.5" width="1220" height="24.65" shape-rendering="crispEdges"/><rect fill="#242f38" x="0" y="757.9" width="61" height="24.65" shape-rendering="crispEdges"/><rect fill="#242f38" x="61" y="757.9" width="61" height="24.65" shape-rendering="crispEdges"/><rect fill="#242f38" x="122" y="757.9" width="36.6" height="24.65" shape-rendering="crispEdges"/><rect fill="#242f38" x="158.6" y="757.9" width="122" height="24.65" shape-rendering="crispEdges"/><rect fill="#242f38" x="280.6" y="757.9" width="36.6" height="24.65" shape-rendering="crispEdges"/><rect fill="#242f38" x="317.2" y="757.9" width="146.4" height="24.65" shape-rendering="crispEdges"/><rect fill="#242f38" x="463.6" y="757.9" width="48.8" height="24.65" shape-rendering="crispEdges"/><rect fill="#242f38" x="512.4" y="757.9" width="97.6" height="24.65" shape-rendering="crispEdges"/><rect fill="#242f38" x="610" y="757.9" width="36.6" height="24.65" shape-rendering="crispEdges"/><rect fill="#242f38" x="646.6" y="757.9" width="61" height="24.65" shape-rendering="crispEdges"/><rect fill="#242f38" x="707.6" y="757.9" width="366" height="24.65" shape-rendering="crispEdges"/><rect fill="#242f38" x="1073.6" y="757.9" width="12.2" height="24.65" shape-rendering="crispEdges"/><rect fill="#242f38" x="1085.8" y="757.9" width="24.4" height="24.65" shape-rendering="crispEdges"/><rect fill="#242f38" x="1110.2" y="757.9" width="97.6" height="24.65" shape-rendering="crispEdges"/><rect fill="#242f38" x="1207.8" y="757.9" width="12.2" height="24.65" shape-rendering="crispEdges"/>
    <g class="terminal-2482365189-matrix">
    <text class="terminal-2482365189-r2" x="12.2" y="20" textLength="12.2" clip-path="url(#terminal-2482365189-line-0)">⭘</text><text class="terminal-2482365189-r2" x="536.8" y="20" textLength="109.8" clip-path="url(#terminal-2482365189-line-0)">lazysense</text><text class="terminal-2482365189-r1" x="1220" y="20" textLength="12.2" clip-path="url(#terminal-2482365189-line-0)">
</text><text class="terminal-2482365189-r1" x="1220" y="44.4" textLength="12.2" clip-path="url(#terminal-2482365189-line-1)">
</text><text class="terminal-2482365189-r3" x="24.4" y="68.8" textLength="134.2" clip-path="url(#terminal-2482365189-line-2)">DHCP&#160;Leases</text><text class="terminal-2482365189-r1" x="1220" y="68.8" textLength="12.2" clip-path="url(#terminal-2482365189-line-2)">
</text><text class="terminal-2482365189-r1" x="1220" y="93.2" textLength="12.2" clip-path="url(#terminal-2482365189-line-3)">
</text><text class="terminal-2482365189-r4" x="0" y="117.6" textLength="36.6" clip-path="url(#terminal-2482365189-line-4)">&#160;#&#160;</text><text class="terminal-2482365189-r4" x="36.6" y="117.6" textLength="170.8" clip-path="url(#terminal-2482365189-line-4)">&#160;IP&#160;&#160;&#160;&#160;&#160;&#160;&#160;&#160;&#160;&#160;&#160;</text><text class="terminal-2482365189-r4" x="207.4" y="117.6" textLength="195.2" clip-path="url(#terminal-2482365189-line-4)">&#160;HOSTNAME&#160;&#160;&#160;&#160;&#160;&#160;&#160;</text><text class="terminal-2482365189-r4" x="402.6" y="117.6" textLength="231.8" clip-path="url(#terminal-2482365189-line-4)">&#160;MAC&#160;&#160;&#160;&#160;&#160;&#160;&#160;&#160;&#160;&#160;&#160;&#160;&#160;&#160;&#160;</text><text class="terminal-2482365189-r4" x="634.4" y="117.6" textLength="244" clip-path="url(#terminal-2482365189-line-4)">&#160;VENDOR&#160;&#160;&#160;&#160;&#160;&#160;&#160;&#160;&#160;&#160;&#160;&#160;&#160;</text><text class="terminal-2482365189-r4" x="878.4" y="117.6" textLength="219.6" clip-path="url(#terminal-2482365189-line-4)">&#160;EXPIRES&#160;&#160;&#160;&#160;&#160;&#160;&#160;&#160;&#160;&#160;</text><text class="terminal-2482365189-r4" x="1098" y="117.6" textLength="61" clip-path="url(#terminal-2482365189-line-4)">&#160;RES&#160;</text><text class="terminal-2482365189-r1" x="1220" y="117.6" textLength="12.2" clip-path="url(#terminal-2482365189-line-4)">
</text><text class="terminal-2482365189-r5" x="0" y="142" textLength="36.6" clip-path="url(#terminal-2482365189-line-5)">&#160;0&#160;</text><text class="terminal-2482365189-r5" x="36.6" y="142" textLength="170.8" clip-path="url(#terminal-2482365189-line-5)">&#160;192.168.1.20&#160;</text><text class="terminal-2482365189-r5" x="207.4" y="142" textLength="195.2" clip-path="url(#terminal-2482365189-line-5)">&#160;media-server&#160;&#160;&#160;</text><text class="terminal-2482365189-r5" x="402.6" y="142" textLength="231.8" clip-path="url(#terminal-2482365189-line-5)">&#160;aa:bb:cc:00:11:22&#160;</text><text class="terminal-2482365189-r5" x="634.4" y="142" textLength="244" clip-path="url(#terminal-2482365189-line-5)">&#160;Synology&#160;Inc.&#160;&#160;&#160;&#160;&#160;&#160;</text><text class="terminal-2482365189-r5" x="878.4" y="142" textLength="219.6" clip-path="url(#terminal-2482365189-line-5)">&#160;2026-06-22&#160;05:46&#160;</text><text class="terminal-2482365189-r5" x="1098" y="142" textLength="61" clip-path="url(#terminal-2482365189-line-5)">&#160;YES&#160;</text><text class="terminal-2482365189-r1" x="1220" y="142" textLength="12.2" clip-path="url(#terminal-2482365189-line-5)">
</text><text class="terminal-2482365189-r2" x="0" y="166.4" textLength="36.6" clip-path="url(#terminal-2482365189-line-6)">&#160;1&#160;</text><text class="terminal-2482365189-r2" x="36.6" y="166.4" textLength="170.8" clip-path="url(#terminal-2482365189-line-6)">&#160;192.168.1.42&#160;</text><text class="terminal-2482365189-r2" x="207.4" y="166.4" textLength="195.2" clip-path="url(#terminal-2482365189-line-6)">&#160;printer-office&#160;</text><text class="terminal-2482365189-r2" x="402.6" y="166.4" textLength="231.8" clip-path="url(#terminal-2482365189-line-6)">&#160;aa:bb:cc:00:11:33&#160;</text><text class="terminal-2482365189-r2" x="634.4" y="166.4" textLength="244" clip-path="url(#terminal-2482365189-line-6)">&#160;Brother&#160;Industries&#160;</text><text class="terminal-2482365189-r2" x="878.4" y="166.4" textLength="219.6" clip-path="url(#terminal-2482365189-line-6)">&#160;2026-06-23&#160;09:33&#160;</text><text class="terminal-2482365189-r6" x="1110.2" y="166.4" textLength="24.4" clip-path="url(#terminal-2482365189-line-6)">no</text><text class="terminal-2482365189-r1" x="1220" y="166.4" textLength="12.2" clip-path="url(#terminal-2482365189-line-6)">
</text><text class="terminal-2482365189-r2" x="0" y="190.8" textLength="36.6" clip-path="url(#terminal-2482365189-line-7)">&#160;2&#160;</text><text class="terminal-2482365189-r2" x="36.6" y="190.8" textLength="170.8" clip-path="url(#terminal-2482365189-line-7)">&#160;192.168.1.55&#160;</text><text class="terminal-2482365189-r2" x="207.4" y="190.8" textLength="195.2" clip-path="url(#terminal-2482365189-line-7)">&#160;*&#160;&#160;&#160;&#160;&#160;&#160;&#160;&#160;&#160;&#160;&#160;&#160;&#160;&#160;</text><text class="terminal-2482365189-r2" x="402.6" y="190.8" textLength="231.8" clip-path="url(#terminal-2482365189-line-7)">&#160;aa:bb:cc:00:11:44&#160;</text><text class="terminal-2482365189-r2" x="634.4" y="190.8" textLength="244" clip-path="url(#terminal-2482365189-line-7)">&#160;Espressif&#160;Inc.&#160;&#160;&#160;&#160;&#160;</text><text class="terminal-2482365189-r2" x="878.4" y="190.8" textLength="219.6" clip-path="url(#terminal-2482365189-line-7)">&#160;2026-06-22&#160;19:40&#160;</text><text class="terminal-2482365189-r6" x="1110.2" y="190.8" textLength="24.4" clip-path="url(#terminal-2482365189-line-7)">no</text><text class="terminal-2482365189-r1" x="1220" y="190.8" textLength="12.2" clip-path="url(#terminal-2482365189-line-7)">
</text><text class="terminal-2482365189-r2" x="0" y="215.2" textLength="36.6" clip-path="url(#terminal-2482365189-line-8)">&#160;3&#160;</text><text class="terminal-2482365189-r2" x="36.6" y="215.2" textLength="170.8" clip-path="url(#terminal-2482365189-line-8)">&#160;192.168.1.61&#160;</text><text class="terminal-2482365189-r2" x="207.4" y="215.2" textLength="195.2" clip-path="url(#terminal-2482365189-line-8)">&#160;guest-phone&#160;&#160;&#160;&#160;</text><text class="terminal-2482365189-r2" x="402.6" y="215.2" textLength="231.8" clip-path="url(#terminal-2482365189-line-8)">&#160;aa:bb:cc:00:11:55&#160;</text><text class="terminal-2482365189-r2" x="634.4" y="215.2" textLength="244" clip-path="url(#terminal-2482365189-line-8)">&#160;Apple,&#160;Inc.&#160;&#160;&#160;&#160;&#160;&#160;&#160;&#160;</text><text class="terminal-2482365189-r2" x="878.4" y="215.2" textLength="219.6" clip-path="url(#terminal-2482365189-line-8)">&#160;2026-06-23&#160;04:00&#160;</text><text class="terminal-2482365189-r6" x="1110.2" y="215.2" textLength="24.4" clip-path="url(#terminal-2482365189-line-8)">no</text><text class="terminal-2482365189-r1" x="1220" y="215.2" textLength="12.2" clip-path="url(#terminal-2482365189-line-8)">
</text><text class="terminal-2482365189-r1" x="1220" y="239.6" textLength="12.2" clip-path="url(#terminal-2482365189-line-9)">
</text><text class="terminal-2482365189-r1" x="1220" y="264" textLength="12.2" clip-path="url(#terminal-2482365189-line-10)">
</text><text class="terminal-2482365189-r1" x="1220" y="288.4" textLength="12.2" clip-path="url(#terminal-2482365189-line-11)">
</text><text class="terminal-2482365189-r1" x="1220" y="312.8" textLength="12.2" clip-path="url(#terminal-2482365189-line-12)">
</text><text class="terminal-2482365189-r1" x="1220" y="337.2" textLength="12.2" clip-path="url(#terminal-2482365189-line-13)">
</text><text class="terminal-2482365189-r1" x="1220" y="361.6" textLength="12.2" clip-path="url(#terminal-2482365189-line-14)">
</text><text class="terminal-2482365189-r1" x="1220" y="386" textLength="12.2" clip-path="url(#terminal-2482365189-line-15)">
</text><text class="terminal-2482365189-r1" x="1220" y="410.4" textLength="12.2" clip-path="url(#terminal-2482365189-line-16)">
</text><text class="terminal-2482365189-r1" x="1220" y="434.8" textLength="12.2" clip-path="url(#terminal-2482365189-line-17)">
</text><text class="terminal-2482365189-r1" x="1220" y="459.2" textLength="12.2" clip-path="url(#terminal-2482365189-line-18)">
</text><text class="terminal-2482365189-r1" x="1220" y="483.6" textLength="12.2" clip-path="url(#terminal-2482365189-line-19)">
</text><text class="terminal-2482365189-r1" x="1220" y="508" textLength="12.2" clip-path="url(#terminal-2482365189-line-20)">
</text><text class="terminal-2482365189-r1" x="1220" y="532.4" textLength="12.2" clip-path="url(#terminal-2482365189-line-21)">
</text><text class="terminal-2482365189-r1" x="1220" y="556.8" textLength="12.2" clip-path="url(#terminal-2482365189-line-22)">
</text><text class="terminal-2482365189-r1" x="1220" y="581.2" textLength="12.2" clip-path="url(#terminal-2482365189-line-23)">
</text><text class="terminal-2482365189-r1" x="1220" y="605.6" textLength="12.2" clip-path="url(#terminal-2482365189-line-24)">
</text><text class="terminal-2482365189-r1" x="1220" y="630" textLength="12.2" clip-path="url(#terminal-2482365189-line-25)">
</text><text class="terminal-2482365189-r1" x="1220" y="654.4" textLength="12.2" clip-path="url(#terminal-2482365189-line-26)">
</text><text class="terminal-2482365189-r1" x="1220" y="678.8" textLength="12.2" clip-path="url(#terminal-2482365189-line-27)">
</text><text class="terminal-2482365189-r1" x="1220" y="703.2" textLength="12.2" clip-path="url(#terminal-2482365189-line-28)">
</text><text class="terminal-2482365189-r1" x="1220" y="727.6" textLength="12.2" clip-path="url(#terminal-2482365189-line-29)">
</text><text class="terminal-2482365189-r1" x="1220" y="752" textLength="12.2" clip-path="url(#terminal-2482365189-line-30)">
</text><text class="terminal-2482365189-r7" x="0" y="776.4" textLength="61" clip-path="url(#terminal-2482365189-line-31)">&#160;esc&#160;</text><text class="terminal-2482365189-r2" x="61" y="776.4" textLength="61" clip-path="url(#terminal-2482365189-line-31)">Back&#160;</text><text class="terminal-2482365189-r7" x="122" y="776.4" textLength="36.6" clip-path="url(#terminal-2482365189-line-31)">&#160;a&#160;</text><text class="terminal-2482365189-r2" x="158.6" y="776.4" textLength="122" clip-path="url(#terminal-2482365189-line-31)">Set&#160;alias&#160;</text><text class="terminal-2482365189-r7" x="280.6" y="776.4" textLength="36.6" clip-path="url(#terminal-2482365189-line-31)">&#160;r&#160;</text><text class="terminal-2482365189-r2" x="317.2" y="776.4" textLength="146.4" clip-path="url(#terminal-2482365189-line-31)">Reservation&#160;</text><text class="terminal-2482365189-r7" x="463.6" y="776.4" textLength="48.8" clip-path="url(#terminal-2482365189-line-31)">&#160;f5&#160;</text><text class="terminal-2482365189-r2" x="512.4" y="776.4" textLength="97.6" clip-path="url(#terminal-2482365189-line-31)">Refresh&#160;</text><text class="terminal-2482365189-r7" x="610" y="776.4" textLength="36.6" clip-path="url(#terminal-2482365189-line-31)">&#160;q&#160;</text><text class="terminal-2482365189-r2" x="646.6" y="776.4" textLength="61" clip-path="url(#terminal-2482365189-line-31)">Quit&#160;</text><text class="terminal-2482365189-r8" x="1073.6" y="776.4" textLength="12.2" clip-path="url(#terminal-2482365189-line-31)">▏</text><text class="terminal-2482365189-r7" x="1085.8" y="776.4" textLength="24.4" clip-path="url(#terminal-2482365189-line-31)">^p</text><text class="terminal-2482365189-r2" x="1110.2" y="776.4" textLength="97.6" clip-path="url(#terminal-2482365189-line-31)">&#160;palette</text>
    </g>
    </g>
</svg>
