<svg class="rich-terminal" viewBox="0 0 1238 830.8" xmlns="http://www.w3.org/2000/svg">
    <!-- Generated with Rich https://www.textualize.io -->
    <style>

    @font-face {
        font-family: "Fira Code";
        src: local("FiraCode-Regular"),
                url("https://cdnjs.cloudflare.com/ajax/libs/firacode/6.2.0/woff2/FiraCode-Regular.woff2") format("woff2"),
                url("https://cdnjs.cloudflare.com/ajax/libs/firacode/6.2.0/woff/FiraCode-Regular.woff") format("woff");
        font-style: normal;
        font-weight: 400;
    }
    @font-face {
        font-family: "Fira Code";
        src: local("FiraCode-Bold"),
                url("https://cdnjs.cloudflare.com/ajax/libs/firacode/6.2.0/woff2/FiraCode-Bold.woff2") format("woff2"),
                url("https://cdnjs.cloudflare.com/ajax/libs/firacode/6.2.0/woff/FiraCode-Bold.woff") format("woff");
        font-style: bold;
        font-weight: 700;
    }

    .terminal-82298717-matrix {
        font-family: Fira Code, monospace;
        font-size: 20px;
        line-height: 24.4px;
        font-variant-east-asian: full-width;
    }

    .terminal-82298717-title {
        font-size: 18px;
        font-weight: bold;
        font-family: arial;
    }

    .terminal-82298717-r1 { fill: #c5c8c6 }
.terminal-82298717-r2 { fill: #e0e0e0 }
.terminal-82298717-r3 { fill: #fea62b;font-weight: bold }
.terminal-82298717-r4 { fill: #1e1e1e }
.terminal-82298717-r5 { fill: #191919 }
.terminal-82298717-r6 { fill: #7f7f7f }
.terminal-82298717-r7 { fill: #e0e0e0;font-weight: bold }
.terminal-82298717-r8 { fill: #ddedf9;font-weight: bold }
.terminal-82298717-r9 { fill: #9e9e9e }
.terminal-82298717-r10 { fill: #fd971f }
.terminal-82298717-r11 { fill: #ffa62b;font-weight: bold }
.terminal-82298717-r12 { fill: #495259 }
    </style>

    <defs>
    <clipPath id="terminal-82298717-clip-terminal">
      <rect x="0" y="0" width="1219.0" height="779.8" />
    </clipPath>
    <clipPath id="terminal-82298717-line-0">
    <rect x="0" y="1.5" width="1220" height="24.65"/>
            </clipPath>
<clipPath id="terminal-82298717-line-1">
    <rect x="0" y="25.9" width="1220" height="24.65"/>
            </clipPath>
<clipPath id="terminal-82298717-line-2">
    <rect x="0" y="50.3" width="1220" height="24.65"/>
            </clipPath>
<clipPath id="terminal-82298717-line-3">
    <rect x="0" y="74.7" width="1220" height="24.65"/>
            </clipPath>
<clipPath id="terminal-82298717-line-4">
    <rect x="0" y="99.1" width="1220" height="24.65"/>
            </clipPath>
<clipPath id="terminal-82298717-line-5">
    <rect x="0" y="123.5" width="1220" height="24.65"/>
            </clipPath>
<clipPath id="terminal-82298717-line-6">
    <rect x="0" y="147.9" width="1220" height="24.65"/>
            </clipPath>
<clipPath id="terminal-82298717-line-7">
    <rect x="0" y="172.3" width="1220" height="24.65"/>
            </clipPath>
<clipPath id="terminal-82298717-line-8">
    <rect x="0" y="196.7" width="1220" height="24.65"/>
            </clipPath>
<clipPath id="terminal-82298717-line-9">
    <rect x="0" y="221.1" width="1220" height="24.65"/>
            </clipPath>
<clipPath id="terminal-82298717-line-10">
    <rect x="0" y="245.5" width="1220" height="24.65"/>
            </clipPath>
<clipPath id="terminal-82298717-line-11">
    <rect x="0" y="269.9" width="1220" height="24.65"/>
            </clipPath>
<clipPath id="terminal-82298717-line-12">
    <rect x="0" y="294.3" width="1220" height="24.65"/>
            </clipPath>
<clipPath id="terminal-82298717-line-13">
    <rect x="0" y="318.7" width="1220" height="24.65"/>
            </clipPath>
<clipPath id="terminal-82298717-line-14">
    <rect x="0" y="343.1" width="1220" height="24.65"/>
            </clipPath>
<clipPath id="terminal-82298717-line-15">
    <rect x="0" y="367.5" width="1220" height="24.65"/>
            </clipPath>
<clipPath id="terminal-82298717-line-16">
    <rect x="0" y="391.9" width="1220" height="24.65"/>
            </clipPath>
<clipPath id="terminal-82298717-line-17">
    <rect x="0" y="416.3" width="1220" height="24.65"/>
            </clipPath>
<clipPath id="terminal-82298717-line-18">
    <rect x="0" y="440.7" width="1220" height="24.65"/>
            </clipPath>
<clipPath id="terminal-82298717-line-19">
    <rect x="0" y="465.1" width="1220" height="24.65"/>
            </clipPath>
<clipPath id="terminal-82298717-line-20">
    <rect x="0" y="489.5" width="1220" height="24.65"/>
            </clipPath>
<clipPath id="terminal-82298717-line-21">
    <rect x="0" y="513.9" width="1220" height="24.65"/>
            </clipPath>
<clipPath id="terminal-82298717-line-22">
    <rect x="0" y="538.3" width="1220" height="24.65"/>
            </clipPath>
<clipPath id="terminal-82298717-line-23">
    <rect x="0" y="562.7" width="1220" height="24.65"/>
            </clipPath>
<clipPath id="terminal-82298717-line-24">
    <rect x="0" y="587.1" width="1220" height="24.65"/>
            </clipPath>
<clipPath id="terminal-82298717-line-25">
    <rect x="0" y="611.5" width="1220" height="24.65"/>
            </clipPath>
<clipPath id="terminal-82298717-line-26">
    <rect x="0" y="635.9" width="1220" height="24.65"/>
            </clipPath>
<clipPath id="terminal-82298717-line-27">
    <rect x="0" y="660.3" width="1220" height="24.65"/>
            </clipPath>
<clipPath id="terminal-82298717-line-28">
    <rect x="0" y="684.7" width="1220" height="24.65"/>
            </clipPath>
<clipPath id="terminal-82298717-line-29">
    <rect x="0" y="709.1" width="1220" height="24.65"/>
            </clipPath>
<clipPath id="terminal-82298717-line-30">
    <rect x="0" y="733.5" width="1220" height="24.65"/>
            </clipPath>
    </defs>

    <rect fill="#292929" stroke="rgba(255,255,255,0.35)" stroke-width="1" x="1" y="1" width="1236" height="828.8" rx="8"/><text class="terminal-82298717-title" fill="#c5c8c6" text-anchor="middle" x="618" y="27">lazysense</text>
            <g transform="translate(26,22)">
            <circle cx="0" cy="0" r="7" fill="#ff5f57"/>
            <circle cx="22" cy="0" r="7" fill="#febc2e"/>
            <circle cx="44" cy="0" r="7" fill="#28c840"/>
            </g>
        
    <g transform="translate(9, 41)" clip-path="url(#terminal-82298717-clip-terminal)">
    <rect fill="#242f38" x="0" y="1.5" width="12.2" height="24.65" shape-rendering="crispEdges"/><rect fill="#242f38" x="12.2" y="1.5" width="12.2" height="24.65" shape-rendering="crispEdges"/><rect fill="#242f38" x="24.4" y="1.5" width="61" height="24.65" shape-rendering="crispEdges"/><rect fill="#242f38" x="85.4" y="1.5" width="12.2" height="24.65" shape-rendering="crispEdges"/><rect fill="#242f38" x="97.6" y="1.5" width="439.2" height="24.65" shape-rendering="crispEdges"/><rect fill="#242f38" x="536.8" y="1.5" width="109.8" height="24.65" shape-rendering="crispEdges"/><rect fill="#242f38" x="646.6" y="1.5" width="451.4" height="24.65" shape-rendering="crispEdges"/><rect fill="#242f38" x="1098" y="1.5" width="12.2" height="24.65" shape-rendering="crispEdges"/><rect fill="#242f38" x="1110.2" y="1.5" width="0" height="24.65" shape-rendering="crispEdges"/><rect fill="#242f38" x="1110.2" y="1.5" width="97.6" height="24.65" shape-rendering="crispEdges"/><rect fill="#242f38" x="1207.8" y="1.5" width="12.2" height="24.65" shape-rendering="crispEdges"/><rect fill="#1e1e1e" x="0" y="25.9" width="1220" height="24.65" shape-rendering="crispEdges"/><rect fill="#1e1e1e" x="0" y="50.3" width="24.4" height="24.65" shape-rendering="crispEdges"/><rect fill="#1e1e1e" x="24.4" y="50.3" width="170.8" height="24.65" shape-rendering="crispEdges"/><rect fill="#1e1e1e" x="195.2" y="50.3" width="1000.4" height="24.65" shape-rendering="crispEdges"/><rect fill="#1e1e1e" x="1195.6" y="50.3" width="24.4" height="24.65" shape-rendering="crispEdges"/><rect fill="#1e1e1e" x="0" y="74.7" width="1220" height="24.65" shape-rendering="crispEdges"/><rect fill="#1e1e1e" x="0" y="99.1" width="12.2" height="24.65" shape-rendering="crispEdges"/><rect fill="#191919" x="12.2" y="99.1" width="12.2" height="24.65" shape-rendering="crispEdges"/><rect fill="#1e1e1e" x="24.4" y="99.1" width="268.4" height="24.65" shape-rendering="crispEdges"/><rect fill="#1e1e1e" x="292.8" y="99.1" width="12.2" height="24.65" shape-rendering="crispEdges"/><rect fill="#1e1e1e" x="305" y="99.1" width="12.2" height="24.65" shape-rendering="crispEdges"/><rect fill="#191919" x="317.2" y="99.1" width="12.2" height="24.65" shape-rendering="crispEdges"/><rect fill="#1e1e1e" x="329.4" y="99.1" width="268.4" height="24.65" shape-rendering="crispEdges"/><rect fill="#1e1e1e" x="597.8" y="99.1" width="12.2" height="24.65" shape-rendering="crispEdges"/><rect fill="#1e1e1e" x="610" y="99.1" width="597.8" height="24.65" shape-rendering="crispEdges"/><rect fill="#1e1e1e" x="1207.8" y="99.1" width="12.2" height="24.65" shape-rendering="crispEdges"/><rect fill="#1e1e1e" x="0" y="123.5" width="12.2" height="24.65" shape-rendering="crispEdges"/><rect fill="#191919" x="12.2" y="123.5" width="12.2" height="24.65" shape-rendering="crispEdges"/><rect fill="#1e1e1e" x="24.4" y="123.5" width="24.4" height="24.65" shape-rendering="crispEdges"/><rect fill="#1e1e1e" x="48.8" y="123.5" width="36.6" height="24.65" shape-rendering="crispEdges"/><rect fill="#1e1e1e" x="85.4" y="123.5" width="183" height="24.65" shape-rendering="crispEdges"/><rect fill="#1e1e1e" x="268.4" y="123.5" width="24.4" height="24.65" shape-rendering="crispEdges"/><rect fill="#1e1e1e" x="292.8" y="123.5" width="12.2" height="24.65" shape-rendering="crispEdges"/><rect fill="#1e1e1e" x="305" y="123.5" width="12.2" height="24.65" shape-rendering="crispEdges"/><rect fill="#191919" x="317.2" y="123.5" width="12.2" height="24.65" shape-rendering="crispEdges"/><rect fill="#1e1e1e" x="329.4" y="123.5" width="24.4" height="24.65" shape-rendering="crispEdges"/><rect fill="#1e1e1e" x="353.8" y="123.5" width="36.6" height="24.65" shape-rendering="crispEdges"/><rect fill="#1e1e1e" x="390.4" y="123.5" width="158.6" height="24.65" shape-rendering="crispEdges"/><rect fill="#1e1e1e" x="549" y="123.5" width="12.2" height="24.65" shape-rendering="crispEdges"/><rect fill="#1e1e1e" x="561.2" y="123.5" width="12.2" height="24.65" shape-rendering="crispEdges"/><rect fill="#1e1e1e" x="573.4" y="123.5" width="24.4" height="24.65" shape-rendering="crispEdges"/><rect fill="#1e1e1e" x="597.8" y="123.5" width="12.2" height="24.65" shape-rendering="crispEdges"/><rect fill="#1e1e1e" x="610" y="123.5" width="597.8" height="24.65" shape-rendering="crispEdges"/><rect fill="#1e1e1e" x="1207.8" y="123.5" width="12.2" height="24.65" shape-rendering="crispEdges"/><rect fill="#1e1e1e" x="0" y="147.9" width="12.2" height="24.65" shape-rendering="crispEdges"/><rect fill="#191919" x="12.2" y="147.9" width="12.2" height="24.65" shape-rendering="crispEdges"/><rect fill="#1e1e1e" x="24.4" y="147.9" width="268.4" height="24.65" shape-rendering="crispEdges"/><rect fill="#1e1e1e" x="292.8" y="147.9" width="12.2" height="24.65" shape-rendering="crispEdges"/><rect fill="#1e1e1e" x="305" y="147.9" width="12.2" height="24.65" shape-rendering="crispEdges"/><rect fill="#191919" x="317.2" y="147.9" width="12.2" height="24.65" shape-rendering="crispEdges"/><rect fill="#1e1e1e" x="329.4" y="147.9" width="268.4" height="24.65" shape-rendering="crispEdges"/><rect fill="#1e1e1e" x="597.8" y="147.9" width="12.2" height="24.65" shape-rendering="crispEdges"/><rect fill="#1e1e1e" x="610" y="147.9" width="597.8" height="24.65" shape-rendering="crispEdges"/><rect fill="#1e1e1e" x="1207.8" y="147.9" width="12.2" height="24.65" shape-rendering="crispEdges"/><rect fill="#2d3740" x="0" y="172.3" width="36.6" height="24.65" shape-rendering="crispEdges"/><rect fill="#2d3740" x="36.6" y="172.3" width="61" height="24.65" shape-rendering="crispEdges"/><rect fill="#2d3740" x="97.6" y="172.3" width="97.6" height="24.65" shape-rendering="crispEdges"/><rect fill="#2d3740" x="195.2" y="172.3" width="61" height="24.65" shape-rendering="crispEdges"/><rect fill="#2d3740" x="256.2" y="172.3" width="170.8" height="24.65" shape-rendering="crispEdges"/><rect fill="#2d3740" x="427" y="172.3" width="170.8" height="24.65" shape-rendering="crispEdges"/><rect fill="#2d3740" x="597.8" y="172.3" width="73.2" height="24.65" shape-rendering="crispEdges"/><rect fill="#2d3740" x="671" y="172.3" width="378.2" height="24.65" shape-rendering="crispEdges"/><rect fill="#2d3740" x="1049.2" y="172.3" width="170.8" height="24.65" shape-rendering="crispEdges"/><rect fill="#0178d4" x="0" y="196.7" width="36.6" height="24.65" shape-rendering="crispEdges"/><rect fill="#0178d4" x="36.6" y="196.7" width="61" height="24.65" shape-rendering="crispEdges"/><rect fill="#0178d4" x="97.6" y="196.7" width="97.6" height="24.65" shape-rendering="crispEdges"/><rect fill="#0178d4" x="195.2" y="196.7" width="61" height="24.65" shape-rendering="crispEdges"/><rect fill="#0178d4" x="256.2" y="196.7" width="170.8" height="24.65" shape-rendering="crispEdges"/><rect fill="#0178d4" x="427" y="196.7" width="170.8" height="24.65" shape-rendering="crispEdges"/><rect fill="#0178d4" x="597.8" y="196.7" width="73.2" height="24.65" shape-rendering="crispEdges"/><rect fill="#0178d4" x="671" y="196.7" width="378.2" height="24.65" shape-rendering="crispEdges"/><rect fill="#0178d4" x="1049.2" y="196.7" width="170.8" height="24.65" shape-rendering="crispEdges"/><rect fill="#272727" x="0" y="221.1" width="36.6" height="24.65" shape-rendering="crispEdges"/><rect fill="#272727" x="36.6" y="221.1" width="12.2" height="24.65" shape-rendering="crispEdges"/><rect fill="#272727" x="48.8" y="221.1" width="36.6" height="24.65" shape-rendering="crispEdges"/><rect fill="#272727" x="85.4" y="221.1" width="12.2" height="24.65" shape-rendering="crispEdges"/><rect fill="#272727" x="97.6" y="221.1" width="12.2" height="24.65" shape-rendering="crispEdges"/><rect fill="#272727" x="109.8" y="221.1" width="73.2" height="24.65" shape-rendering="crispEdges"/><rect fill="#272727" x="183" y="221.1" width="12.2" height="24.65" shape-rendering="crispEdges"/><rect fill="#272727" x="195.2" y="221.1" width="61" height="24.65" shape-rendering="crispEdges"/><rect fill="#272727" x="256.2" y="221.1" width="170.8" height="24.65" shape-rendering="crispEdges"/><rect fill="#272727" x="427" y="221.1" width="170.8" height="24.65" shape-rendering="crispEdges"/><rect fill="#272727" x="597.8" y="221.1" width="73.2" height="24.65" shape-rendering="crispEdges"/><rect fill="#272727" x="671" y="221.1" width="378.2" height="24.65" shape-rendering="crispEdges"/><rect fill="#272727" x="1049.2" y="221.1" width="170.8" height="24.65" shape-rendering="crispEdges"/><rect fill="#272727" x="0" y="245.5" width="1220" height="24.65" shape-rendering="crispEdges"/><rect fill="#272727" x="0" y="269.9" width="1220" height="24.65" shape-rendering="crispEdges"/><rect fill="#272727" x="0" y="294.3" width="1220" height="24.65" shape-rendering="crispEdges"/><rect fill="#272727" x="0" y="318.7" width="1220" height="24.65" shape-rendering="crispEdges"/><rect fill="#272727" x="0" y="343.1" width="1220" height="24.65" shape-rendering="crispEdges"/><rect fill="#272727" x="0" y="367.5" width="1220" height="24.65" shape-rendering="crispEdges"/><rect fill="#272727" x="0" y="391.9" width="1220" height="24.65" shape-rendering="crispEdges"/><rect fill="#272727" x="0" y="416.3" width="1220" height="24.65" shape-rendering="crispEdges"/><rect fill="#272727" x="0" y="440.7" width="1220" height="24.65" shape-rendering="crispEdges"/><rect fill="#272727" x="0" y="465.1" width="1220" height="24.65" shape-rendering="crispEdges"/><rect fill="#272727" x="0" y="489.5" width="1220" height="24.65" shape-rendering="crispEdges"/><rect fill="#272727" x="0" y="513.9" width="1220" height="24.65" shape-rendering="crispEdges"/><rect fill="#272727" x="0" y="538.3" width="1220" height="24.65" shape-rendering="crispEdges"/><rect fill="#272727" x="0" y="562.7" width="1220" height="24.65" shape-rendering="crispEdges"/><rect fill="#272727" x="0" y="587.1" width="1220" height="24.65" shape-rendering="crispEdges"/><rect fill="#272727" x="0" y="611.5" width="1220" height="24.65" shape-rendering="crispEdges"/><rect fill="#272727" x="0" y="635.9" width="1220" height="24.65" shape-rendering="crispEdges"/><rect fill="#272727" x="0" y="660.3" width="1220" height="24.65" shape-rendering="crispEdges"/><rect fill="#272727" x="0" y="684.7" width="1220" height="24.65" shape-rendering="crispEdges"/><rect fill="#272727" x="0" y="709.1" width="1220" height="24.65" shape-rendering="crispEdges"/><rect fill="#272727" x="0" y="733.5" width="1220" height="24.65" shape-rendering="crispEdges"/><rect fill="#242f38" x="0" y="757.9" width="61" height="24.65" shape-rendering="crispEdges"/><rect fill="#242f38" x="61" y="757.9" width="61" height="24.65" shape-rendering="crispEdges"/><rect fill="#242f38" x="122" y="757.9" width="36.6" height="24.65" shape-rendering="crispEdges"/><rect fill="#242f38" x="158.6" y="757.9" width="85.4" height="24.65" shape-rendering="crispEdges"/><rect fill="#242f38" x="244" y="757.9" width="36.6" height="24.65" shape-rendering="crispEdges"/><rect fill="#242f38" x="280.6" y="757.9" width="97.6" height="24.65" shape-rendering="crispEdges"/><rect fill="#242f38" x="378.2" y="757.9" width="36.6" height="24.65" shape-rendering="crispEdges"/><rect fill="#242f38" x="414.8" y="757.9" width="97.6" height="24.65" shape-rendering="crispEdges"/><rect fill="#242f38" x="512.4" y="757.9" width="36.6" height="24.65" shape-rendering="crispEdges"/><rect fill="#242f38" x="549" y="757.9" width="61" height="24.65" shape-rendering="crispEdges"/><rect fill="#242f38" x="610" y="757.9" width="463.6" height="24.65" shape-rendering="crispEdges"/><rect fill="#242f38" x="1073.6" y="757.9" width="12.2" height="24.65" shape-rendering="crispEdges"/><rect fill="#242f38" x="1085.8" y="757.9" width="24.4" height="24.65" shape-rendering="crispEdges"/><rect fill="#242f38" x="1110.2" y="757.9" width="97.6" height="24.65" shape-rendering="crispEdges"/><rect fill="#242f38" x="1207.8" y="757.9" width="12.2" height="24.65" shape-rendering="crispEdges"/>
    <g class="terminal-82298717-matrix">
    <text class="terminal-82298717-r2" x="12.2" y="20" textLength="12.2" clip-path="url(#terminal-82298717-line-0)">⭘</text><text class="terminal-82298717-r2" x="536.8" y="20" textLength="109.8" clip-path="url(#terminal-82298717-line-0)">lazysense</text><text class="terminal-82298717-r1" x="1220" y="20" textLength="12.2" clip-path="url(#terminal-82298717-line-0)">
</text><text class="terminal-82298717-r1" x="1220" y="44.4" textLength="12.2" clip-path="url(#terminal-82298717-line-1)">
</text><text class="terminal-82298717-r3" x="24.4" y="68.8" textLength="170.8" clip-path="url(#terminal-82298717-line-2)">Firewall&#160;Rules</text><text class="terminal-82298717-r1" x="1220" y="68.8" textLength="12.2" clip-path="url(#terminal-82298717-line-2)">
</text><text class="terminal-82298717-r1" x="1220" y="93.2" textLength="12.2" clip-path="url(#terminal-82298717-line-3)">
</text><text class="terminal-82298717-r4" x="12.2" y="117.6" textLength="12.2" clip-path="url(#terminal-82298717-line-4)">▊</text><text class="terminal-82298717-r5" x="24.4" y="117.6" textLength="268.4" clip-path="url(#terminal-82298717-line-4)">▔▔▔▔▔▔▔▔▔▔▔▔▔▔▔▔▔▔▔▔▔▔</text><text class="terminal-82298717-r5" x="292.8" y="117.6" textLength="12.2" clip-path="url(#terminal-82298717-line-4)">▎</text><text class="terminal-82298717-r4" x="317.2" y="117.6" textLength="12.2" clip-path="url(#terminal-82298717-line-4)">▊</text><text class="terminal-82298717-r5" x="329.4" y="117.6" textLength="268.4" clip-path="url(#terminal-82298717-line-4)">▔▔▔▔▔▔▔▔▔▔▔▔▔▔▔▔▔▔▔▔▔▔</text><text class="terminal-82298717-r5" x="597.8" y="117.6" textLength="12.2" clip-path="url(#terminal-82298717-line-4)">▎</text><text class="terminal-82298717-r1" x="1220" y="117.6" textLength="12.2" clip-path="url(#terminal-82298717-line-4)">
</text><text class="terminal-82298717-r4" x="12.2" y="142" textLength="12.2" clip-path="url(#terminal-82298717-line-5)">▊</text><text class="terminal-82298717-r2" x="48.8" y="142" textLength="36.6" clip-path="url(#terminal-82298717-line-5)">LAN</text><text class="terminal-82298717-r5" x="292.8" y="142" textLength="12.2" clip-path="url(#terminal-82298717-line-5)">▎</text><text class="terminal-82298717-r4" x="317.2" y="142" textLength="12.2" clip-path="url(#terminal-82298717-line-5)">▊</text><text class="terminal-82298717-r2" x="353.8" y="142" textLength="36.6" clip-path="url(#terminal-82298717-line-5)">all</text><text class="terminal-82298717-r6" x="561.2" y="142" textLength="12.2" clip-path="url(#terminal-82298717-line-5)">▼</text><text class="terminal-82298717-r5" x="597.8" y="142" textLength="12.2" clip-path="url(#terminal-82298717-line-5)">▎</text><text class="terminal-82298717-r1" x="1220" y="142" textLength="12.2" clip-path="url(#terminal-82298717-line-5)">
</text><text class="terminal-82298717-r4" x="12.2" y="166.4" textLength="12.2" clip-path="url(#terminal-82298717-line-6)">▊</text><text class="terminal-82298717-r5" x="24.4" y="166.4" textLength="268.4" clip-path="url(#terminal-82298717-line-6)">▁▁▁▁▁▁▁▁▁▁▁▁▁▁▁▁▁▁▁▁▁▁</text><text class="terminal-82298717-r5" x="292.8" y="166.4" textLength="12.2" clip-path="url(#terminal-82298717-line-6)">▎</text><text class="terminal-82298717-r4" x="317.2" y="166.4" textLength="12.2" clip-path="url(#terminal-82298717-line-6)">▊</text><text class="terminal-82298717-r5" x="329.4" y="166.4" textLength="268.4" clip-path="url(#terminal-82298717-line-6)">▁▁▁▁▁▁▁▁▁▁▁▁▁▁▁▁▁▁▁▁▁▁</text><text class="terminal-82298717-r5" x="597.8" y="166.4" textLength="12.2" clip-path="url(#terminal-82298717-line-6)">▎</text><text class="terminal-82298717-r1" x="1220" y="166.4" textLength="12.2" clip-path="url(#terminal-82298717-line-6)">
</text><text class="terminal-82298717-r7" x="0" y="190.8" textLength="36.6" clip-path="url(#terminal-82298717-line-7)">&#160;#&#160;</text><text class="terminal-82298717-r7" x="36.6" y="190.8" textLength="61" clip-path="url(#terminal-82298717-line-7)">&#160;ST&#160;&#160;</text><text class="terminal-82298717-r7" x="97.6" y="190.8" textLength="97.6" clip-path="url(#terminal-82298717-line-7)">&#160;ACTION&#160;</text><text class="terminal-82298717-r7" x="195.2" y="190.8" textLength="61" clip-path="url(#terminal-82298717-line-7)">&#160;DIR&#160;</text><text class="terminal-82298717-r7" x="256.2" y="190.8" textLength="170.8" clip-path="url(#terminal-82298717-line-7)">&#160;IF&#160;&#160;&#160;&#160;&#160;&#160;&#160;&#160;&#160;&#160;&#160;</text><text class="terminal-82298717-r7" x="427" y="190.8" textLength="170.8" clip-path="url(#terminal-82298717-line-7)">&#160;SOURCE&#160;&#160;&#160;&#160;&#160;&#160;&#160;</text><text class="terminal-82298717-r7" x="597.8" y="190.8" textLength="73.2" clip-path="url(#terminal-82298717-line-7)">&#160;DEST&#160;</text><text class="terminal-82298717-r7" x="671" y="190.8" textLength="378.2" clip-path="url(#terminal-82298717-line-7)">&#160;DESCRIPTION&#160;&#160;&#160;&#160;&#160;&#160;&#160;&#160;&#160;&#160;&#160;&#160;&#160;&#160;&#160;&#160;&#160;&#160;&#160;</text><text class="terminal-82298717-r1" x="1220" y="190.8" textLength="12.2" clip-path="url(#terminal-82298717-line-7)">
</text><text class="terminal-82298717-r8" x="0" y="215.2" textLength="36.6" clip-path="url(#terminal-82298717-line-8)">&#160;0&#160;</text><text class="terminal-82298717-r8" x="36.6" y="215.2" textLength="61" clip-path="url(#terminal-82298717-line-8)">&#160;ON&#160;&#160;</text><text class="terminal-82298717-r8" x="97.6" y="215.2" textLength="97.6" clip-path="url(#terminal-82298717-line-8)">&#160;Pass&#160;&#160;&#160;</text><text class="terminal-82298717-r8" x="195.2" y="215.2" textLength="61" clip-path="url(#terminal-82298717-line-8)">&#160;in&#160;&#160;</text><text class="terminal-82298717-r8" x="256.2" y="215.2" textLength="170.8" clip-path="url(#terminal-82298717-line-8)">&#160;LAN&#160;&#160;&#160;&#160;&#160;&#160;&#160;&#160;&#160;&#160;</text><text class="terminal-82298717-r8" x="427" y="215.2" textLength="170.8" clip-path="url(#terminal-82298717-line-8)">&#160;lan&#160;&#160;&#160;&#160;&#160;&#160;&#160;&#160;&#160;&#160;</text><text class="terminal-82298717-r8" x="597.8" y="215.2" textLength="73.2" clip-path="url(#terminal-82298717-line-8)">&#160;any&#160;&#160;</text><text class="terminal-82298717-r8" x="671" y="215.2" textLength="378.2" clip-path="url(#terminal-82298717-line-8)">&#160;Default&#160;allow&#160;LAN&#160;to&#160;any&#160;rule&#160;</text><text class="terminal-82298717-r1" x="1220" y="215.2" textLength="12.2" clip-path="url(#terminal-82298717-line-8)">
</text><text class="terminal-82298717-r2" x="0" y="239.6" textLength="36.6" clip-path="url(#terminal-82298717-line-9)">&#160;1&#160;</text><text class="terminal-82298717-r9" x="48.8" y="239.6" textLength="36.6" clip-path="url(#terminal-82298717-line-9)">OFF</text><text class="terminal-82298717-r10" x="109.8" y="239.6" textLength="73.2" clip-path="url(#terminal-82298717-line-9)">Reject</text><text class="terminal-82298717-r2" x="195.2" y="239.6" textLength="61" clip-path="url(#terminal-82298717-line-9)">&#160;out&#160;</text><text class="terminal-82298717-r2" x="256.2" y="239.6" textLength="170.8" clip-path="url(#terminal-82298717-line-9)">&#160;LAN&#160;&#160;&#160;&#160;&#160;&#160;&#160;&#160;&#160;&#160;</text><text class="terminal-82298717-r2" x="427" y="239.6" textLength="170.8" clip-path="url(#terminal-82298717-line-9)">&#160;192.168.1.50&#160;</text><text class="terminal-82298717-r2" x="597.8" y="239.6" textLength="73.2" clip-path="url(#terminal-82298717-line-9)">&#160;any&#160;&#160;</text><text class="terminal-82298717-r2" x="671" y="239.6" textLength="378.2" clip-path="url(#terminal-82298717-line-9)">&#160;Block&#160;printer&#160;internet&#160;access&#160;</text><text class="terminal-82298717-r1" x="1220" y="239.6" textLength="12.2" clip-path="url(#terminal-82298717-line-9)">
</text><text class="terminal-82298717-r1" x="1220" y="264" textLength="12.2" clip-path="url(#terminal-82298717-line-10)">
</text><text class="terminal-82298717-r1" x="1220" y="288.4" textLength="12.2" clip-path="url(#terminal-82298717-line-11)">
</text><text class="terminal-82298717-r1" x="1220" y="312.8" textLength="12.2" clip-path="url(#terminal-82298717-line-12)">
</text><text class="terminal-82298717-r1" x="1220" y="337.2" textLength="12.2" clip-path="url(#terminal-82298717-line-13)">
</text><text class="terminal-82298717-r1" x="1220" y="361.6" textLength="12.2" clip-path="url(#terminal-82298717-line-14)">
</text><text class="terminal-82298717-r1" x="1220" y="386" textLength="12.2" clip-path="url(#terminal-82298717-line-15)">
</text><text class="terminal-82298717-r1" x="1220" y="410.4" textLength="12.2" clip-path="url(#terminal-82298717-line-16)">
</text><text class="terminal-82298717-r1" x="1220" y="434.8" textLength="12.2" clip-path="url(#terminal-82298717-line-17)">
</text><text class="terminal-82298717-r1" x="1220" y="459.2" textLength="12.2" clip-path="url(#terminal-82298717-line-18)">
</text><text class="terminal-82298717-r1" x="1220" y="483.6" textLength="12.2" clip-path="url(#terminal-82298717-line-19)">
</text><text class="terminal-82298717-r1" x="1220" y="508" textLength="12.2" clip-path="url(#terminal-82298717-line-20)">
</text><text class="terminal-82298717-r1" x="1220" y="532.4" textLength="12.2" clip-path="url(#terminal-82298717-line-21)">
</text><text class="terminal-82298717-r1" x="1220" y="556.8" textLength="12.2" clip-path="url(#terminal-82298717-line-22)">
</text><text class="terminal-82298717-r1" x="1220" y="581.2" textLength="12.2" clip-path="url(#terminal-82298717-line-23)">
</text><text class="terminal-82298717-r1" x="1220" y="605.6" textLength="12.2" clip-path="url(#terminal-82298717-line-24)">
</text><text class="terminal-82298717-r1" x="1220" y="630" textLength="12.2" clip-path="url(#terminal-82298717-line-25)">
</text><text class="terminal-82298717-r1" x="1220" y="654.4" textLength="12.2" clip-path="url(#terminal-82298717-line-26)">
</text><text class="terminal-82298717-r1" x="1220" y="678.8" textLength="12.2" clip-path="url(#terminal-82298717-line-27)">
</text><text class="terminal-82298717-r1" x="1220" y="703.2" textLength="12.2" clip-path="url(#terminal-82298717-line-28)">
</text><text class="terminal-82298717-r1" x="1220" y="727.6" textLength="12.2" clip-path="url(#terminal-82298717-line-29)">
</text><text class="terminal-82298717-r1" x="1220" y="752" textLength="12.2" clip-path="url(#terminal-82298717-line-30)">
</text><text class="terminal-82298717-r11" x="0" y="776.4" textLength="61" clip-path="url(#terminal-82298717-line-31)">&#160;esc&#160;</text><text class="terminal-82298717-r2" x="61" y="776.4" textLength="61" clip-path="url(#terminal-82298717-line-31)">Back&#160;</text><text class="terminal-82298717-r11" x="122" y="776.4" textLength="36.6" clip-path="url(#terminal-82298717-line-31)">&#160;e&#160;</text><text class="terminal-82298717-r2" x="158.6" y="776.4" textLength="85.4" clip-path="url(#terminal-82298717-line-31)">Enable&#160;</text><text class="terminal-82298717-r11" x="244" y="776.4" textLength="36.6" clip-path="url(#terminal-82298717-line-31)">&#160;d&#160;</text><text class="terminal-82298717-r2" x="280.6" y="776.4" textLength="97.6" clip-path="url(#terminal-82298717-line-31)">Disable&#160;</text><text class="terminal-82298717-r11" x="378.2" y="776.4" textLength="36.6" clip-path="url(#terminal-82298717-line-31)">&#160;r&#160;</text><text class="terminal-82298717-r2" x="414.8" y="776.4" textLength="97.6" clip-path="url(#terminal-82298717-line-31)">Refresh&#160;</text><text class="terminal-82298717-r11" x="512.4" y="776.4" textLength="36.6" clip-path="url(#terminal-82298717-line-31)">&#160;q&#160;</text><text class="terminal-82298717-r2" x="549" y="776.4" textLength="61" clip-path="url(#terminal-82298717-line-31)">Quit&#160;</text><text class="terminal-82298717-r12" x="1073.6" y="776.4" textLength="12.2" clip-path="url(#terminal-82298717-line-31)">▏</text><text class="terminal-82298717-r11" x="1085.8" y="776.4" textLength="24.4" clip-path="url(#terminal-82298717-line-31)">^p</text><text class="terminal-82298717-r2" x="1110.2" y="776.4" textLength="97.6" clip-path="url(#terminal-82298717-line-31)">&#160;palette</text>
    </g>
    </g>
</svg>
